# xmcd
#
# Track frame offsets:
#	150
#	17303
#	37305
#	65515
#	97013
#	120930
#	135996
#	162844
#	185378
#	206425
#	234547
#
# Disc length: 3436 seconds
#
# Revision: 1
# Processed by: cddbd v1.5.2PL0 Copyright (c) Steve Scherf et al.
# Submitted via: audiograbber 1.83.01
#
DISCID=890d6a0b
DTITLE=The Blues Bones - Saved By The Blues
DYEAR=2015
DGENRE=Blues
TTITLE0=Find Me A Woman
TTITLE1=I'm On The Road Again
TTITLE2=I Try
TTITLE3=Devil's Bride
TTITLE4=I'm Still Your Man
TTITLE5=Saved By The Blues
TTITLE6=Moonshine
TTITLE7=Crazy
TTITLE8=Call Me
TTITLE9=Runaway
TTITLE10=Wrong
EXTD=
EXTT0=
EXTT1=
EXTT2=
EXTT3=
EXTT4=
EXTT5=
EXTT6=
EXTT7=
EXTT8=
EXTT9=
EXTT10=
PLAYORDER=
